0
SECTION
2
ENTITIES
999
Created by Metasequoia
0
3DFACE
8
layer1
62
1
10
0.00000
20
1.49191
30
0.51299
11
-0.36425
21
1.49191
31
0.36060
12
-0.36425
22
1.31911
32
0.36060
13
0.00000
23
1.31911
33
0.51299
0
3DFACE
8
layer1
62
1
10
-0.29140
20
1.49191
30
0.28702
11
0.00000
21
1.49191
31
0.40893
12
0.00000
22
1.31911
32
0.40893
13
-0.29140
23
1.31911
33
0.28702
0
3DFACE
8
layer1
62
1
10
-0.36425
20
1.49191
30
0.36060
11
-0.51513
21
1.49191
31
-0.00730
12
-0.51513
22
1.31911
32
-0.00730
13
-0.36425
23
1.31911
33
0.36060
0
3DFACE
8
layer1
62
1
10
-0.41210
20
1.49191
30
-0.00730
11
-0.29140
21
1.49191
31
0.28702
12
-0.29140
22
1.31911
32
0.28702
13
-0.41210
23
1.31911
33
-0.00730
0
3DFACE
8
layer1
62
1
10
-0.51513
20
1.49191
30
-0.00730
11
-0.36425
21
1.49191
31
-0.37520
12
-0.36425
22
1.31911
32
-0.37520
13
-0.51513
23
1.31911
33
-0.00730
0
3DFACE
8
layer1
62
1
10
-0.29140
20
1.49191
30
-0.30162
11
-0.41210
21
1.49191
31
-0.00730
12
-0.41210
22
1.31911
32
-0.00730
13
-0.29140
23
1.31911
33
-0.30162
0
3DFACE
8
layer1
62
1
10
-0.36425
20
1.49191
30
-0.37520
11
0.00000
21
1.49191
31
-0.52759
12
0.00000
22
1.31911
32
-0.52759
13
-0.36425
23
1.31911
33
-0.37520
0
3DFACE
8
layer1
62
1
10
0.00000
20
1.49191
30
-0.42353
11
-0.29140
21
1.49191
31
-0.30162
12
-0.29140
22
1.31911
32
-0.30162
13
0.00000
23
1.31911
33
-0.42353
0
3DFACE
8
layer1
62
1
10
0.00000
20
1.49191
30
-0.52759
11
0.36425
21
1.49191
31
-0.37520
12
0.36425
22
1.31911
32
-0.37520
13
0.00000
23
1.31911
33
-0.52759
0
3DFACE
8
layer1
62
1
10
0.29140
20
1.49191
30
-0.30162
11
0.00000
21
1.49191
31
-0.42353
12
0.00000
22
1.31911
32
-0.42353
13
0.29140
23
1.31911
33
-0.30162
0
3DFACE
8
layer1
62
1
10
0.36425
20
1.49191
30
-0.37520
11
0.51513
21
1.49191
31
-0.00730
12
0.51513
22
1.31911
32
-0.00730
13
0.36425
23
1.31911
33
-0.37520
0
3DFACE
8
layer1
62
1
10
0.41210
20
1.49191
30
-0.00730
11
0.29140
21
1.49191
31
-0.30162
12
0.29140
22
1.31911
32
-0.30162
13
0.41210
23
1.31911
33
-0.00730
0
3DFACE
8
layer1
62
1
10
0.51513
20
1.49191
30
-0.00730
11
0.36425
21
1.49191
31
0.36060
12
0.36425
22
1.31911
32
0.36060
13
0.51513
23
1.31911
33
-0.00730
0
3DFACE
8
layer1
62
1
10
0.29140
20
1.49191
30
0.28702
11
0.41210
21
1.49191
31
-0.00730
12
0.41210
22
1.31911
32
-0.00730
13
0.29140
23
1.31911
33
0.28702
0
3DFACE
8
layer1
62
1
10
0.36425
20
1.49191
30
0.36060
11
0.00000
21
1.49191
31
0.51299
12
0.00000
22
1.31911
32
0.51299
13
0.36425
23
1.31911
33
0.36060
0
3DFACE
8
layer1
62
1
10
0.00000
20
1.49191
30
0.40893
11
0.29140
21
1.49191
31
0.28702
12
0.29140
22
1.31911
32
0.28702
13
0.00000
23
1.31911
33
0.40893
0
3DFACE
8
layer1
62
1
10
0.00000
20
1.31911
30
0.51299
11
-0.36425
21
1.31911
31
0.36060
12
-0.36425
22
0.88278
32
0.36060
13
0.00000
23
0.88278
33
0.51299
0
3DFACE
8
layer1
62
1
10
-0.29140
20
1.31911
30
0.28702
11
0.00000
21
1.31911
31
0.40893
12
0.00000
22
0.88278
32
0.40893
13
-0.29140
23
0.88278
33
0.28702
0
3DFACE
8
layer1
62
1
10
-0.36425
20
1.31911
30
0.36060
11
-0.51513
21
1.31911
31
-0.00730
12
-0.51513
22
0.88278
32
-0.00730
13
-0.36425
23
0.88278
33
0.36060
0
3DFACE
8
layer1
62
1
10
-0.41210
20
1.31911
30
-0.00730
11
-0.29140
21
1.31911
31
0.28702
12
-0.29140
22
0.88278
32
0.28702
13
-0.41210
23
0.88278
33
-0.00730
0
3DFACE
8
layer1
62
1
10
-0.51513
20
1.31911
30
-0.00730
11
-0.36425
21
1.31911
31
-0.37520
12
-0.36425
22
0.88278
32
-0.37520
13
-0.51513
23
0.88278
33
-0.00730
0
3DFACE
8
layer1
62
1
10
-0.29140
20
1.31911
30
-0.30162
11
-0.41210
21
1.31911
31
-0.00730
12
-0.41210
22
0.88278
32
-0.00730
13
-0.29140
23
0.88278
33
-0.30162
0
3DFACE
8
layer1
62
1
10
0.36425
20
1.31911
30
-0.37520
11
0.51513
21
1.31911
31
-0.00730
12
0.51513
22
0.88278
32
-0.00730
13
0.36425
23
0.88278
33
-0.37520
0
3DFACE
8
layer1
62
1
10
0.41210
20
1.31911
30
-0.00730
11
0.29140
21
1.31911
31
-0.30162
12
0.29140
22
0.88278
32
-0.30162
13
0.41210
23
0.88278
33
-0.00730
0
3DFACE
8
layer1
62
1
10
0.00000
20
1.49191
30
0.51299
11
0.00000
21
1.49191
31
0.40893
12
-0.29140
22
1.49191
32
0.28702
13
-0.36425
23
1.49191
33
0.36060
0
3DFACE
8
layer1
62
1
10
0.00000
20
0.88278
30
0.51299
11
-0.36425
21
0.88278
31
0.36060
12
-0.29140
22
0.88278
32
0.28702
13
0.00000
23
0.88278
33
0.40893
0
3DFACE
8
layer1
62
1
10
-0.36425
20
1.49191
30
0.36060
11
-0.29140
21
1.49191
31
0.28702
12
-0.41210
22
1.49191
32
-0.00730
13
-0.51513
23
1.49191
33
-0.00730
0
3DFACE
8
layer1
62
1
10
-0.36425
20
0.88278
30
0.36060
11
-0.51513
21
0.88278
31
-0.00730
12
-0.41210
22
0.88278
32
-0.00730
13
-0.29140
23
0.88278
33
0.28702
0
3DFACE
8
layer1
62
1
10
-0.51513
20
1.49191
30
-0.00730
11
-0.41210
21
1.49191
31
-0.00730
12
-0.29140
22
1.49191
32
-0.30162
13
-0.36425
23
1.49191
33
-0.37520
0
3DFACE
8
layer1
62
1
10
-0.51513
20
0.88278
30
-0.00730
11
-0.36425
21
0.88278
31
-0.37520
12
-0.29140
22
0.88278
32
-0.30162
13
-0.41210
23
0.88278
33
-0.00730
0
3DFACE
8
layer1
62
1
10
-0.36425
20
1.49191
30
-0.37520
11
-0.29140
21
1.49191
31
-0.30162
12
0.00000
22
1.49191
32
-0.42353
13
0.00000
23
1.49191
33
-0.52759
0
3DFACE
8
layer1
62
1
10
0.00000
20
1.49191
30
-0.52759
11
0.00000
21
1.49191
31
-0.42353
12
0.29140
22
1.49191
32
-0.30162
13
0.36425
23
1.49191
33
-0.37520
0
3DFACE
8
layer1
62
1
10
0.36425
20
1.49191
30
-0.37520
11
0.29140
21
1.49191
31
-0.30162
12
0.41210
22
1.49191
32
-0.00730
13
0.51513
23
1.49191
33
-0.00730
0
3DFACE
8
layer1
62
1
10
0.36425
20
0.88278
30
-0.37520
11
0.51513
21
0.88278
31
-0.00730
12
0.41210
22
0.88278
32
-0.00730
13
0.29140
23
0.88278
33
-0.30162
0
3DFACE
8
layer1
62
1
10
0.51513
20
1.49191
30
-0.00730
11
0.41210
21
1.49191
31
-0.00730
12
0.29140
22
1.49191
32
0.28702
13
0.36425
23
1.49191
33
0.36060
0
3DFACE
8
layer1
62
1
10
0.36425
20
1.49191
30
0.36060
11
0.29140
21
1.49191
31
0.28702
12
0.00000
22
1.49191
32
0.40893
13
0.00000
23
1.49191
33
0.51299
0
ENDSEC
0
EOF
